<mxfile host="65bd71144e">
    <diagram id="tW3uWgYnH0wnzu_OpGo9" name="Page-1">
        <mxGraphModel dx="1468" dy="702" grid="1" gridSize="10" guides="1" tooltips="1" connect="1" arrows="1" fold="1" page="1" pageScale="1" pageWidth="1169" pageHeight="827" background="#ffffff" math="0" shadow="0">
            <root>
                <mxCell id="0"/>
                <mxCell id="1" parent="0"/>
                <mxCell id="142" value="" style="rounded=0;whiteSpace=wrap;html=1;labelBackgroundColor=none;labelBorderColor=none;strokeColor=default;strokeWidth=1;fontSize=12;fontColor=#4D4D4D;fillColor=#FFFFFF;" vertex="1" parent="1">
                    <mxGeometry width="1169" height="60" as="geometry"/>
                </mxCell>
                <mxCell id="32" value="" style="whiteSpace=wrap;html=1;fontSize=12;fillColor=none;dashed=1;align=left;strokeWidth=3;strokeColor=#004C99;" vertex="1" parent="1">
                    <mxGeometry x="19" y="190" width="890" height="520" as="geometry"/>
                </mxCell>
                <mxCell id="106" value="&lt;font style=&quot;font-size: 12px;&quot;&gt;&amp;nbsp; Node&lt;br&gt;&amp;nbsp; &amp;nbsp; &amp;nbsp;&lt;b&gt;X&lt;/b&gt;&lt;br&gt;&lt;/font&gt;" style="shape=cube;whiteSpace=wrap;html=1;boundedLbl=1;backgroundOutline=1;darkOpacity=0.05;darkOpacity2=0.1;fontSize=10;size=10;align=left;" vertex="1" parent="1">
                    <mxGeometry x="62" y="600" width="370" height="90" as="geometry"/>
                </mxCell>
                <mxCell id="70" value="&lt;font style=&quot;font-size: 12px;&quot;&gt;&lt;br&gt;&lt;/font&gt;" style="shape=cube;whiteSpace=wrap;html=1;boundedLbl=1;backgroundOutline=1;darkOpacity=0.05;darkOpacity2=0.1;fontSize=10;size=10;align=left;fillColor=default;dashed=1;" vertex="1" parent="1">
                    <mxGeometry x="62" y="320" width="370" height="290" as="geometry"/>
                </mxCell>
                <mxCell id="33" value="" style="whiteSpace=wrap;html=1;fontSize=12;fillColor=none;dashed=1;" vertex="1" parent="1">
                    <mxGeometry x="989" y="190" width="160" height="150" as="geometry"/>
                </mxCell>
                <mxCell id="3" value="" style="shape=hexagon;perimeter=hexagonPerimeter2;whiteSpace=wrap;html=1;fixedSize=1;size=20;strokeColor=#004C99;fillColor=#CCE5FF;" parent="1" vertex="1">
                    <mxGeometry x="92" y="470" width="140" height="101.25" as="geometry"/>
                </mxCell>
                <mxCell id="5" value="transplaneur&lt;br style=&quot;font-size: 12px;&quot;&gt;sidecar" style="rounded=0;whiteSpace=wrap;html=1;fontSize=12;fillColor=#FFCCCC;" vertex="1" parent="1">
                    <mxGeometry x="122" y="521.25" width="80" height="40" as="geometry"/>
                </mxCell>
                <mxCell id="7" value="" style="shape=hexagon;perimeter=hexagonPerimeter2;whiteSpace=wrap;html=1;fixedSize=1;size=30;align=center;strokeColor=#004C99;fillColor=#FFE6CC;" vertex="1" parent="1">
                    <mxGeometry x="286" y="471.25" width="140" height="100" as="geometry"/>
                </mxCell>
                <mxCell id="8" value="transplaneur&lt;br&gt;gateway" style="rounded=0;whiteSpace=wrap;html=1;fillColor=#FFCCCC;" vertex="1" parent="1">
                    <mxGeometry x="316" y="501.25" width="80" height="40" as="geometry"/>
                </mxCell>
                <mxCell id="19" value="transplaneur&lt;br&gt;server" style="rounded=0;whiteSpace=wrap;html=1;fillColor=#FFE6CC;" vertex="1" parent="1">
                    <mxGeometry x="1029" y="217.5" width="100" height="50" as="geometry"/>
                </mxCell>
                <mxCell id="34" style="edgeStyle=orthogonalEdgeStyle;curved=1;html=1;fontSize=12;endArrow=classic;endFill=1;strokeColor=#FF8000;strokeWidth=2;" edge="1" parent="1" source="20" target="19">
                    <mxGeometry relative="1" as="geometry"/>
                </mxCell>
                <mxCell id="20" value="Wireguard VPN" style="shape=cylinder3;whiteSpace=wrap;html=1;boundedLbl=1;backgroundOutline=1;size=9;fontSize=12;rotation=90;horizontal=0;" vertex="1" parent="1">
                    <mxGeometry x="929.63" y="180.63" width="40" height="123.75" as="geometry"/>
                </mxCell>
                <mxCell id="21" value="proxied app" style="rounded=0;whiteSpace=wrap;html=1;fontSize=12;fillColor=#E6FFCC;" vertex="1" parent="1">
                    <mxGeometry x="122" y="481.25" width="80" height="40" as="geometry"/>
                </mxCell>
                <mxCell id="24" style="edgeStyle=orthogonalEdgeStyle;curved=1;html=1;fontSize=10;entryX=0.909;entryY=0.186;entryDx=0;entryDy=0;endArrow=block;endFill=0;entryPerimeter=0;" edge="1" parent="1" target="3">
                    <mxGeometry relative="1" as="geometry">
                        <mxPoint x="202" y="541.2103225806452" as="sourcePoint"/>
                        <mxPoint x="223.25" y="498.4365625" as="targetPoint"/>
                        <Array as="points">
                            <mxPoint x="257" y="541"/>
                            <mxPoint x="257" y="489"/>
                        </Array>
                    </mxGeometry>
                </mxCell>
                <mxCell id="67" value="update pod&amp;nbsp;&lt;br&gt;routing&amp;nbsp;table" style="edgeLabel;html=1;align=center;verticalAlign=middle;resizable=0;points=[];fontSize=12;labelBackgroundColor=none;" vertex="1" connectable="0" parent="24">
                    <mxGeometry x="0.57" y="-1" relative="1" as="geometry">
                        <mxPoint x="10" y="-18" as="offset"/>
                    </mxGeometry>
                </mxCell>
                <mxCell id="117" style="edgeStyle=orthogonalEdgeStyle;curved=1;html=1;entryX=0.505;entryY=0.995;entryDx=0;entryDy=0;strokeColor=#FF8000;strokeWidth=2;fontSize=12;fontColor=#000000;endArrow=classic;endFill=1;entryPerimeter=0;" edge="1" parent="1" source="19" target="31">
                    <mxGeometry relative="1" as="geometry">
                        <mxPoint x="989" y="150" as="sourcePoint"/>
                    </mxGeometry>
                </mxCell>
                <mxCell id="31" value="WAN&lt;br&gt;with &lt;font color=&quot;#ff8000&quot;&gt;remote&lt;/font&gt; IP" style="ellipse;shape=cloud;whiteSpace=wrap;html=1;fontSize=12;" vertex="1" parent="1">
                    <mxGeometry x="1019" y="70" width="120" height="80" as="geometry"/>
                </mxCell>
                <mxCell id="38" value="Cluster Kubernetes" style="text;html=1;strokeColor=none;fillColor=none;align=left;verticalAlign=middle;whiteSpace=wrap;rounded=0;dashed=1;fontSize=12;fontColor=#004C99;fontStyle=1" vertex="1" parent="1">
                    <mxGeometry x="19" y="160" width="140" height="30" as="geometry"/>
                </mxCell>
                <mxCell id="40" style="edgeStyle=orthogonalEdgeStyle;curved=1;html=1;entryX=0.5;entryY=1;entryDx=0;entryDy=0;fontSize=12;endArrow=classic;endFill=1;exitX=0.5;exitY=0;exitDx=0;exitDy=0;exitPerimeter=0;strokeColor=#FF8000;strokeWidth=2;" edge="1" parent="1" source="39" target="19">
                    <mxGeometry relative="1" as="geometry">
                        <mxPoint x="1040.255" y="365.00224869851513" as="sourcePoint"/>
                        <Array as="points">
                            <mxPoint x="1008" y="300"/>
                            <mxPoint x="1079" y="300"/>
                        </Array>
                    </mxGeometry>
                </mxCell>
                <mxCell id="39" value="Wireguard VPN" style="shape=cylinder3;whiteSpace=wrap;html=1;boundedLbl=1;backgroundOutline=1;size=9;fontSize=12;rotation=90;horizontal=0;" vertex="1" parent="1">
                    <mxGeometry x="929.63" y="240" width="40" height="121.25" as="geometry"/>
                </mxCell>
                <mxCell id="59" value="" style="group" vertex="1" connectable="0" parent="1">
                    <mxGeometry x="849" y="643.25" width="41" height="10" as="geometry"/>
                </mxCell>
                <mxCell id="56" value="" style="ellipse;whiteSpace=wrap;html=1;aspect=fixed;dashed=1;strokeColor=none;fontSize=12;fillColor=#333333;" vertex="1" parent="59">
                    <mxGeometry x="3" width="10" height="10" as="geometry"/>
                </mxCell>
                <mxCell id="57" value="" style="ellipse;whiteSpace=wrap;html=1;aspect=fixed;dashed=1;strokeColor=none;fontSize=12;fillColor=#333333;" vertex="1" parent="59">
                    <mxGeometry x="18" width="10" height="10" as="geometry"/>
                </mxCell>
                <mxCell id="58" value="" style="ellipse;whiteSpace=wrap;html=1;aspect=fixed;dashed=1;strokeColor=none;fontSize=12;fillColor=#333333;" vertex="1" parent="59">
                    <mxGeometry x="33" width="10" height="10" as="geometry"/>
                </mxCell>
                <mxCell id="68" value="Service &lt;br&gt;ClusterIP" style="ellipse;whiteSpace=wrap;html=1;strokeColor=#0066CC;strokeWidth=2;fontSize=12;fontColor=#0066CC;fillColor=#FFFFFF;" vertex="1" parent="1">
                    <mxGeometry x="309.5" y="217.5" width="112.5" height="52.5" as="geometry"/>
                </mxCell>
                <mxCell id="73" value="&lt;font style=&quot;font-size: 12px;&quot;&gt;&amp;nbsp; Node&lt;br&gt;&amp;nbsp; &amp;nbsp; &amp;nbsp;&lt;b&gt;Y&lt;/b&gt;&lt;br&gt;&lt;/font&gt;" style="shape=cube;whiteSpace=wrap;html=1;boundedLbl=1;backgroundOutline=1;darkOpacity=0.05;darkOpacity2=0.1;fontSize=10;size=10;align=left;" vertex="1" parent="1">
                    <mxGeometry x="462" y="600" width="370" height="90" as="geometry"/>
                </mxCell>
                <mxCell id="74" value="&lt;font style=&quot;font-size: 12px;&quot;&gt;&lt;br&gt;&lt;/font&gt;" style="shape=cube;whiteSpace=wrap;html=1;boundedLbl=1;backgroundOutline=1;darkOpacity=0.05;darkOpacity2=0.1;fontSize=10;size=10;align=left;fillColor=default;dashed=1;" vertex="1" parent="1">
                    <mxGeometry x="462" y="320" width="370" height="290" as="geometry"/>
                </mxCell>
                <mxCell id="75" value="" style="shape=hexagon;perimeter=hexagonPerimeter2;whiteSpace=wrap;html=1;fixedSize=1;size=20;strokeColor=#004C99;fillColor=#CCE5FF;" vertex="1" parent="1">
                    <mxGeometry x="492" y="470" width="140" height="101.25" as="geometry"/>
                </mxCell>
                <mxCell id="76" value="transplaneur&lt;br style=&quot;font-size: 12px;&quot;&gt;sidecar" style="rounded=0;whiteSpace=wrap;html=1;fontSize=12;fillColor=#FFCCCC;" vertex="1" parent="1">
                    <mxGeometry x="522" y="521.25" width="80" height="40" as="geometry"/>
                </mxCell>
                <mxCell id="77" value="NAT&lt;br&gt;traffic" style="edgeLabel;html=1;align=center;verticalAlign=middle;resizable=0;points=[];fontSize=12;fontColor=#FF8000;" vertex="1" connectable="0" parent="1">
                    <mxGeometry x="408.9999999999998" y="450" as="geometry">
                        <mxPoint x="-6" y="-6" as="offset"/>
                    </mxGeometry>
                </mxCell>
                <mxCell id="78" value="" style="shape=hexagon;perimeter=hexagonPerimeter2;whiteSpace=wrap;html=1;fixedSize=1;size=30;align=center;strokeColor=#004C99;fillColor=#FFE6CC;" vertex="1" parent="1">
                    <mxGeometry x="686" y="471.25" width="140" height="100" as="geometry"/>
                </mxCell>
                <mxCell id="79" value="transplaneur&lt;br&gt;gateway" style="rounded=0;whiteSpace=wrap;html=1;fillColor=#FFCCCC;" vertex="1" parent="1">
                    <mxGeometry x="716" y="501.25" width="80" height="40" as="geometry"/>
                </mxCell>
                <mxCell id="80" value="Host: /var/run/transplaneur" style="shape=cylinder3;whiteSpace=wrap;html=1;boundedLbl=1;backgroundOutline=1;size=6;fontSize=10;fillColor=#E6E6E6;" vertex="1" parent="1">
                    <mxGeometry x="526" y="625" width="135" height="50" as="geometry"/>
                </mxCell>
                <mxCell id="81" value="Host: /etc/transplaneur" style="shape=cylinder3;whiteSpace=wrap;html=1;boundedLbl=1;backgroundOutline=1;size=6;fontSize=10;fillColor=#E6E6E6;" vertex="1" parent="1">
                    <mxGeometry x="696" y="625" width="120" height="50" as="geometry"/>
                </mxCell>
                <mxCell id="82" style="edgeStyle=orthogonalEdgeStyle;curved=1;html=1;entryX=0.271;entryY=0;entryDx=0;entryDy=0;entryPerimeter=0;fontSize=10;endArrow=block;endFill=0;" edge="1" parent="1" source="76" target="80">
                    <mxGeometry relative="1" as="geometry">
                        <mxPoint x="762" y="631.25" as="targetPoint"/>
                    </mxGeometry>
                </mxCell>
                <mxCell id="83" value="watch" style="edgeLabel;html=1;align=center;verticalAlign=middle;resizable=0;points=[];fontSize=12;" vertex="1" connectable="0" parent="82">
                    <mxGeometry x="0.0063" y="5" relative="1" as="geometry">
                        <mxPoint x="-28" as="offset"/>
                    </mxGeometry>
                </mxCell>
                <mxCell id="84" style="edgeStyle=orthogonalEdgeStyle;curved=1;html=1;entryX=0.729;entryY=-0.017;entryDx=0;entryDy=0;entryPerimeter=0;fontSize=10;endArrow=block;endFill=0;" edge="1" parent="1" source="79" target="80">
                    <mxGeometry relative="1" as="geometry">
                        <mxPoint x="792" y="631.25" as="targetPoint"/>
                    </mxGeometry>
                </mxCell>
                <mxCell id="85" value="update" style="edgeLabel;html=1;align=center;verticalAlign=middle;resizable=0;points=[];fontSize=12;" vertex="1" connectable="0" parent="84">
                    <mxGeometry x="0.5216" y="5" relative="1" as="geometry">
                        <mxPoint x="20" y="10" as="offset"/>
                    </mxGeometry>
                </mxCell>
                <mxCell id="86" style="edgeStyle=orthogonalEdgeStyle;curved=1;html=1;fontSize=10;endArrow=block;endFill=0;" edge="1" parent="1" source="79" target="81">
                    <mxGeometry relative="1" as="geometry">
                        <mxPoint x="942" y="631.25" as="targetPoint"/>
                        <Array as="points"/>
                    </mxGeometry>
                </mxCell>
                <mxCell id="87" value="read" style="edgeLabel;html=1;align=center;verticalAlign=middle;resizable=0;points=[];fontSize=12;" vertex="1" connectable="0" parent="86">
                    <mxGeometry x="0.0009" relative="1" as="geometry">
                        <mxPoint x="17" as="offset"/>
                    </mxGeometry>
                </mxCell>
                <mxCell id="88" value="proxied&amp;nbsp;app" style="rounded=0;whiteSpace=wrap;html=1;fontSize=12;fillColor=#E6FFCC;" vertex="1" parent="1">
                    <mxGeometry x="522" y="481.25" width="80" height="40" as="geometry"/>
                </mxCell>
                <mxCell id="89" style="edgeStyle=orthogonalEdgeStyle;curved=1;html=1;fontSize=10;entryX=0.91;entryY=0.193;entryDx=0;entryDy=0;endArrow=block;endFill=0;entryPerimeter=0;" edge="1" parent="1" target="75">
                    <mxGeometry relative="1" as="geometry">
                        <mxPoint x="602" y="541.2503225806452" as="sourcePoint"/>
                        <mxPoint x="619.76" y="483.83125" as="targetPoint"/>
                        <Array as="points">
                            <mxPoint x="657" y="541"/>
                            <mxPoint x="657" y="489"/>
                        </Array>
                    </mxGeometry>
                </mxCell>
                <mxCell id="90" value="update pod&amp;nbsp;&lt;br&gt;routing&amp;nbsp;table" style="edgeLabel;html=1;align=center;verticalAlign=middle;resizable=0;points=[];fontSize=12;labelBackgroundColor=none;" vertex="1" connectable="0" parent="89">
                    <mxGeometry x="0.57" y="-1" relative="1" as="geometry">
                        <mxPoint x="10" y="-18" as="offset"/>
                    </mxGeometry>
                </mxCell>
                <mxCell id="29" value="&amp;nbsp; &amp;nbsp; &amp;nbsp; CNI (Kilo)" style="shape=parallelogram;perimeter=parallelogramPerimeter;whiteSpace=wrap;html=1;fixedSize=1;fontSize=12;align=left;fillColor=#FFFFCC;" vertex="1" parent="1">
                    <mxGeometry x="32" y="352.5" width="830" height="41.25" as="geometry"/>
                </mxCell>
                <mxCell id="26" style="edgeStyle=orthogonalEdgeStyle;html=1;entryX=0.5;entryY=0;entryDx=0;entryDy=0;fontSize=12;endArrow=classic;endFill=1;exitX=0.625;exitY=0;exitDx=0;exitDy=0;curved=1;strokeColor=#CC0000;strokeWidth=2;" edge="1" parent="1" source="3" target="7">
                    <mxGeometry relative="1" as="geometry">
                        <Array as="points">
                            <mxPoint x="180" y="380"/>
                            <mxPoint x="356" y="380"/>
                        </Array>
                    </mxGeometry>
                </mxCell>
                <mxCell id="71" value="outbound&lt;br&gt;traffic" style="edgeLabel;html=1;align=center;verticalAlign=middle;resizable=0;points=[];fontSize=12;fontColor=#CC0000;" vertex="1" connectable="0" parent="26">
                    <mxGeometry x="0.654" y="-13" relative="1" as="geometry">
                        <mxPoint x="-124" y="20" as="offset"/>
                    </mxGeometry>
                </mxCell>
                <mxCell id="91" style="edgeStyle=orthogonalEdgeStyle;html=1;entryX=0.5;entryY=0;entryDx=0;entryDy=0;fontSize=12;endArrow=classic;endFill=1;exitX=0.625;exitY=0;exitDx=0;exitDy=0;curved=1;strokeWidth=2;strokeColor=#CC0000;" edge="1" parent="1" source="75" target="78">
                    <mxGeometry relative="1" as="geometry">
                        <Array as="points">
                            <mxPoint x="580" y="380"/>
                            <mxPoint x="756" y="380"/>
                        </Array>
                    </mxGeometry>
                </mxCell>
                <mxCell id="103" value="outbound&lt;br style=&quot;border-color: var(--border-color);&quot;&gt;traffic" style="edgeLabel;html=1;align=center;verticalAlign=middle;resizable=0;points=[];fontSize=12;fontColor=#CC0000;" vertex="1" connectable="0" parent="91">
                    <mxGeometry x="-0.8113" y="-4" relative="1" as="geometry">
                        <mxPoint x="36" y="-6" as="offset"/>
                    </mxGeometry>
                </mxCell>
                <mxCell id="69" style="edgeStyle=orthogonalEdgeStyle;curved=1;html=1;entryX=0.5;entryY=1;entryDx=0;entryDy=0;fontSize=12;fontColor=#000000;endArrow=classic;endFill=1;exitX=0.5;exitY=0;exitDx=0;exitDy=0;strokeColor=#0066CC;strokeWidth=2;" edge="1" parent="1" source="3" target="68">
                    <mxGeometry relative="1" as="geometry">
                        <mxPoint x="188.25" y="292.5" as="targetPoint"/>
                    </mxGeometry>
                </mxCell>
                <mxCell id="100" value="in-cluster&lt;br&gt;traffic" style="edgeLabel;html=1;align=center;verticalAlign=middle;resizable=0;points=[];fontSize=12;fontColor=#0066CC;" vertex="1" connectable="0" parent="69">
                    <mxGeometry x="-0.8036" y="-7" relative="1" as="geometry">
                        <mxPoint x="-40" as="offset"/>
                    </mxGeometry>
                </mxCell>
                <mxCell id="94" style="edgeStyle=orthogonalEdgeStyle;curved=1;html=1;entryX=0.5;entryY=1;entryDx=0;entryDy=0;fontSize=12;fontColor=#000000;endArrow=classic;endFill=1;exitX=0.5;exitY=0;exitDx=0;exitDy=0;strokeColor=#0066CC;strokeWidth=2;" edge="1" parent="1" source="75" target="68">
                    <mxGeometry relative="1" as="geometry">
                        <mxPoint x="588.25" y="292.5" as="targetPoint"/>
                    </mxGeometry>
                </mxCell>
                <mxCell id="101" value="in-cluster&lt;br style=&quot;border-color: var(--border-color);&quot;&gt;traffic" style="edgeLabel;html=1;align=center;verticalAlign=middle;resizable=0;points=[];fontSize=12;fontColor=#0066CC;" vertex="1" connectable="0" parent="94">
                    <mxGeometry x="-0.8236" relative="1" as="geometry">
                        <mxPoint x="-40" as="offset"/>
                    </mxGeometry>
                </mxCell>
                <mxCell id="28" style="edgeStyle=orthogonalEdgeStyle;curved=1;html=1;fontSize=12;endArrow=classic;endFill=1;entryX=0.5;entryY=1;entryDx=0;entryDy=0;entryPerimeter=0;exitX=0.625;exitY=0;exitDx=0;exitDy=0;fontColor=#FF8000;strokeColor=#FF8000;strokeWidth=2;" edge="1" parent="1" source="7" target="20">
                    <mxGeometry relative="1" as="geometry"/>
                </mxCell>
                <mxCell id="104" style="edgeStyle=orthogonalEdgeStyle;curved=1;html=1;entryX=0.5;entryY=1;entryDx=0;entryDy=0;entryPerimeter=0;fontSize=12;fontColor=#FF8000;endArrow=classic;endFill=1;exitX=0.625;exitY=0;exitDx=0;exitDy=0;strokeColor=#FF8000;strokeWidth=2;" edge="1" parent="1" source="78" target="39">
                    <mxGeometry relative="1" as="geometry"/>
                </mxCell>
                <mxCell id="105" value="NAT&lt;br style=&quot;border-color: var(--border-color);&quot;&gt;traffic" style="edgeLabel;html=1;align=center;verticalAlign=middle;resizable=0;points=[];fontSize=12;fontColor=#FF8000;" vertex="1" connectable="0" parent="104">
                    <mxGeometry x="-0.7312" relative="1" as="geometry">
                        <mxPoint x="23" y="9" as="offset"/>
                    </mxGeometry>
                </mxCell>
                <mxCell id="108" value="Host: /var/run/transplaneur" style="shape=cylinder3;whiteSpace=wrap;html=1;boundedLbl=1;backgroundOutline=1;size=6;fontSize=10;fillColor=#E6E6E6;" vertex="1" parent="1">
                    <mxGeometry x="126" y="625" width="135" height="50" as="geometry"/>
                </mxCell>
                <mxCell id="109" value="Host: /etc/transplaneur" style="shape=cylinder3;whiteSpace=wrap;html=1;boundedLbl=1;backgroundOutline=1;size=6;fontSize=10;fillColor=#E6E6E6;" vertex="1" parent="1">
                    <mxGeometry x="296" y="625" width="120" height="50" as="geometry"/>
                </mxCell>
                <mxCell id="110" style="edgeStyle=orthogonalEdgeStyle;curved=1;html=1;entryX=0.729;entryY=-0.017;entryDx=0;entryDy=0;entryPerimeter=0;fontSize=10;endArrow=block;endFill=0;" edge="1" parent="1" target="108">
                    <mxGeometry relative="1" as="geometry">
                        <mxPoint x="392" y="631.25" as="targetPoint"/>
                        <mxPoint x="316" y="521.28" as="sourcePoint"/>
                    </mxGeometry>
                </mxCell>
                <mxCell id="111" value="update" style="edgeLabel;html=1;align=center;verticalAlign=middle;resizable=0;points=[];fontSize=12;" vertex="1" connectable="0" parent="110">
                    <mxGeometry x="0.5216" y="5" relative="1" as="geometry">
                        <mxPoint x="20" y="10" as="offset"/>
                    </mxGeometry>
                </mxCell>
                <mxCell id="112" style="edgeStyle=orthogonalEdgeStyle;curved=1;html=1;fontSize=10;endArrow=block;endFill=0;" edge="1" parent="1" target="109">
                    <mxGeometry relative="1" as="geometry">
                        <mxPoint x="542" y="631.25" as="targetPoint"/>
                        <Array as="points"/>
                        <mxPoint x="356" y="541.25" as="sourcePoint"/>
                    </mxGeometry>
                </mxCell>
                <mxCell id="113" value="read" style="edgeLabel;html=1;align=center;verticalAlign=middle;resizable=0;points=[];fontSize=12;" vertex="1" connectable="0" parent="112">
                    <mxGeometry x="0.0009" relative="1" as="geometry">
                        <mxPoint x="17" as="offset"/>
                    </mxGeometry>
                </mxCell>
                <mxCell id="115" style="edgeStyle=orthogonalEdgeStyle;curved=1;html=1;entryX=0.268;entryY=0.004;entryDx=0;entryDy=0;entryPerimeter=0;strokeColor=#000000;strokeWidth=1;fontSize=12;fontColor=#FF8000;endArrow=block;endFill=0;" edge="1" parent="1" source="5" target="108">
                    <mxGeometry relative="1" as="geometry"/>
                </mxCell>
                <mxCell id="116" value="watch" style="edgeLabel;html=1;align=center;verticalAlign=middle;resizable=0;points=[];fontSize=12;fontColor=#000000;" vertex="1" connectable="0" parent="115">
                    <mxGeometry x="-0.0058" y="-2" relative="1" as="geometry">
                        <mxPoint x="-21" y="-3" as="offset"/>
                    </mxGeometry>
                </mxCell>
                <mxCell id="122" style="edgeStyle=orthogonalEdgeStyle;curved=1;html=1;entryX=0.55;entryY=0.95;entryDx=0;entryDy=0;entryPerimeter=0;strokeColor=#009900;strokeWidth=2;fontSize=12;fontColor=#000000;endArrow=classic;endFill=1;exitX=0.5;exitY=1;exitDx=0;exitDy=0;" edge="1" parent="1" source="119" target="121">
                    <mxGeometry relative="1" as="geometry">
                        <Array as="points">
                            <mxPoint x="135" y="370"/>
                            <mxPoint x="262" y="370"/>
                        </Array>
                    </mxGeometry>
                </mxCell>
                <mxCell id="123" value="&lt;span style=&quot;&quot;&gt;outbound&lt;/span&gt;&lt;br style=&quot;border-color: var(--border-color);&quot;&gt;&lt;span style=&quot;&quot;&gt;traffic on&lt;br&gt;non-proxied&lt;br&gt;pod&lt;br&gt;&lt;/span&gt;" style="edgeLabel;html=1;align=center;verticalAlign=middle;resizable=0;points=[];fontSize=12;fontColor=#009900;labelBackgroundColor=none;" vertex="1" connectable="0" parent="122">
                    <mxGeometry x="-0.7788" y="10" relative="1" as="geometry">
                        <mxPoint x="65" y="-48" as="offset"/>
                    </mxGeometry>
                </mxCell>
                <mxCell id="119" value="" style="shape=hexagon;perimeter=hexagonPerimeter2;whiteSpace=wrap;html=1;fixedSize=1;size=20;strokeColor=#004C99;fillColor=#CCE5FF;" vertex="1" parent="1">
                    <mxGeometry x="80" y="210" width="110" height="80" as="geometry"/>
                </mxCell>
                <mxCell id="120" value="other app" style="rounded=0;whiteSpace=wrap;html=1;fontSize=12;fillColor=#E6FFCC;" vertex="1" parent="1">
                    <mxGeometry x="100" y="230" width="70" height="40" as="geometry"/>
                </mxCell>
                <mxCell id="121" value="WAN&lt;br&gt;with &lt;font color=&quot;#009900&quot;&gt;local&lt;/font&gt; IP" style="ellipse;shape=cloud;whiteSpace=wrap;html=1;fontSize=12;" vertex="1" parent="1">
                    <mxGeometry x="196" y="70" width="120" height="80" as="geometry"/>
                </mxCell>
                <mxCell id="124" value="" style="rounded=0;whiteSpace=wrap;html=1;dashed=1;labelBackgroundColor=none;strokeColor=none;strokeWidth=0;fontSize=12;fontColor=#009900;fillColor=#E6E6E6;" vertex="1" parent="1">
                    <mxGeometry y="730" width="1169" height="97" as="geometry"/>
                </mxCell>
                <mxCell id="125" value="Other location" style="text;html=1;strokeColor=none;fillColor=none;align=right;verticalAlign=middle;whiteSpace=wrap;rounded=0;dashed=1;fontSize=12;fontColor=#004C99;fontStyle=1" vertex="1" parent="1">
                    <mxGeometry x="1009" y="340" width="140" height="30" as="geometry"/>
                </mxCell>
                <mxCell id="126" value="other&lt;br&gt;Pod" style="shape=hexagon;perimeter=hexagonPerimeter2;whiteSpace=wrap;html=1;fixedSize=1;size=20;strokeColor=#004C99;fillColor=#CCE5FF;" vertex="1" parent="1">
                    <mxGeometry x="10" y="755.68" width="100" height="61.25" as="geometry"/>
                </mxCell>
                <mxCell id="127" value="container" style="rounded=0;whiteSpace=wrap;html=1;fontSize=12;fillColor=#FFFFFF;" vertex="1" parent="1">
                    <mxGeometry x="236" y="766.31" width="80" height="40" as="geometry"/>
                </mxCell>
                <mxCell id="128" value="transplaneur&lt;br&gt;DaemonSet&lt;br&gt;Pod" style="shape=hexagon;perimeter=hexagonPerimeter2;whiteSpace=wrap;html=1;fixedSize=1;size=20;strokeColor=#004C99;fillColor=#FFE6CC;" vertex="1" parent="1">
                    <mxGeometry x="120" y="755.68" width="100" height="61.25" as="geometry"/>
                </mxCell>
                <mxCell id="129" style="html=1;fontSize=12;endArrow=classic;endFill=1;exitX=0.625;exitY=0;exitDx=0;exitDy=0;strokeColor=#000000;strokeWidth=2;" edge="1" parent="1">
                    <mxGeometry relative="1" as="geometry">
                        <mxPoint x="787" y="776.31" as="sourcePoint"/>
                        <mxPoint x="847" y="776.31" as="targetPoint"/>
                    </mxGeometry>
                </mxCell>
                <mxCell id="130" value="traffic" style="edgeLabel;html=1;align=center;verticalAlign=middle;resizable=0;points=[];fontSize=12;fontColor=#000000;labelBackgroundColor=none;" vertex="1" connectable="0" parent="129">
                    <mxGeometry x="0.654" y="-13" relative="1" as="geometry">
                        <mxPoint x="-24" y="7" as="offset"/>
                    </mxGeometry>
                </mxCell>
                <mxCell id="131" value="HostPath volume" style="shape=cylinder3;whiteSpace=wrap;html=1;boundedLbl=1;backgroundOutline=1;size=6;fontSize=10;fillColor=#FFFFFF;" vertex="1" parent="1">
                    <mxGeometry x="340" y="761.9399999999999" width="95" height="50" as="geometry"/>
                </mxCell>
                <mxCell id="132" value="&lt;div style=&quot;&quot;&gt;&lt;span style=&quot;font-size: 12px; background-color: initial;&quot;&gt;Node&lt;/span&gt;&lt;/div&gt;" style="shape=cube;whiteSpace=wrap;html=1;boundedLbl=1;backgroundOutline=1;darkOpacity=0.05;darkOpacity2=0.1;fontSize=10;size=10;align=center;" vertex="1" parent="1">
                    <mxGeometry x="450" y="760.6899999999999" width="89" height="51.25" as="geometry"/>
                </mxCell>
                <mxCell id="133" value="&amp;nbsp; &amp;nbsp; &amp;nbsp; CNI Network" style="shape=parallelogram;perimeter=parallelogramPerimeter;whiteSpace=wrap;html=1;fixedSize=1;fontSize=12;align=left;fillColor=#FFFFFF;" vertex="1" parent="1">
                    <mxGeometry x="554" y="766.9399999999999" width="120" height="41.25" as="geometry"/>
                </mxCell>
                <mxCell id="134" value="VPN" style="shape=cylinder3;whiteSpace=wrap;html=1;boundedLbl=1;backgroundOutline=1;size=9;fontSize=12;rotation=90;horizontal=0;" vertex="1" parent="1">
                    <mxGeometry x="710" y="746" width="40" height="80.63" as="geometry"/>
                </mxCell>
                <mxCell id="135" style="html=1;fontSize=12;endArrow=block;endFill=0;exitX=0.625;exitY=0;exitDx=0;exitDy=0;strokeColor=#000000;strokeWidth=1;" edge="1" parent="1">
                    <mxGeometry relative="1" as="geometry">
                        <mxPoint x="867" y="776.31" as="sourcePoint"/>
                        <mxPoint x="927" y="776.31" as="targetPoint"/>
                    </mxGeometry>
                </mxCell>
                <mxCell id="136" value="action" style="edgeLabel;html=1;align=center;verticalAlign=middle;resizable=0;points=[];fontSize=12;fontColor=#000000;labelBackgroundColor=none;" vertex="1" connectable="0" parent="135">
                    <mxGeometry x="0.654" y="-13" relative="1" as="geometry">
                        <mxPoint x="-24" y="7" as="offset"/>
                    </mxGeometry>
                </mxCell>
                <mxCell id="137" value="K8S cluster" style="whiteSpace=wrap;html=1;fontSize=12;fillColor=none;dashed=1;align=center;strokeWidth=3;strokeColor=#004C99;fontColor=#0066CC;" vertex="1" parent="1">
                    <mxGeometry x="948" y="763.5" width="72" height="40" as="geometry"/>
                </mxCell>
                <mxCell id="138" value="K8S Service" style="ellipse;whiteSpace=wrap;html=1;strokeColor=#0066CC;strokeWidth=2;fontSize=12;fontColor=#0066CC;fillColor=#FFFFFF;" vertex="1" parent="1">
                    <mxGeometry x="1040" y="763.5" width="89" height="39.75" as="geometry"/>
                </mxCell>
                <mxCell id="139" value="Legend :&amp;nbsp;" style="text;html=1;strokeColor=none;fillColor=none;align=center;verticalAlign=middle;whiteSpace=wrap;rounded=0;dashed=1;labelBackgroundColor=none;strokeWidth=0;fontSize=12;fontColor=#4D4D4D;" vertex="1" parent="1">
                    <mxGeometry x="2" y="730.69" width="60" height="30" as="geometry"/>
                </mxCell>
                <mxCell id="143" value="transplaneur" style="text;html=1;strokeColor=none;fillColor=none;align=center;verticalAlign=middle;whiteSpace=wrap;rounded=0;labelBackgroundColor=none;labelBorderColor=none;strokeWidth=1;fontSize=20;fontColor=#4D4D4D;fontStyle=1" vertex="1" parent="1">
                    <mxGeometry x="506" y="3" width="158" height="30" as="geometry"/>
                </mxCell>
                <mxCell id="144" value="&lt;font style=&quot;font-size: 16px;&quot;&gt;Architecture&lt;/font&gt;" style="text;html=1;strokeColor=none;fillColor=none;align=center;verticalAlign=middle;whiteSpace=wrap;rounded=0;labelBackgroundColor=none;labelBorderColor=none;strokeWidth=1;fontSize=12;fontColor=#4D4D4D;fontStyle=0" vertex="1" parent="1">
                    <mxGeometry x="473" y="27" width="224" height="30" as="geometry"/>
                </mxCell>
                <mxCell id="145" value="&lt;font style=&quot;font-size: 12px;&quot;&gt;alexis@infrabuilder.com&lt;br&gt;2023-03-14&lt;br&gt;&lt;/font&gt;" style="text;html=1;strokeColor=none;fillColor=none;align=right;verticalAlign=middle;whiteSpace=wrap;rounded=0;labelBackgroundColor=none;labelBorderColor=none;strokeWidth=1;fontSize=12;fontColor=#4D4D4D;fontStyle=0" vertex="1" parent="1">
                    <mxGeometry x="929.63" y="15" width="224" height="30" as="geometry"/>
                </mxCell>
                <mxCell id="146" value="" style="shape=image;verticalLabelPosition=bottom;labelBackgroundColor=default;verticalAlign=top;aspect=fixed;imageAspect=0;image=data:image/png,iVBORw0KGgoAAAANSUhEUgAAAWgAAAB4CAYAAADfRGj6AAAAAXNSR0IArs4c6QAAAERlWElmTU0AKgAAAAgAAYdpAAQAAAABAAAAGgAAAAAAA6ABAAMAAAABAAEAAKACAAQAAAABAAABaKADAAQAAAABAAAAeAAAAADw4XpyAAA21UlEQVR4Ae2dB5hURdb3h5wlCJKZIYOICRMYGBUxZzGx4OCad9193aCo66rvZw7v6u7qLig5qGBaREyoiAKCgmtAZwAlRyUPSdL3+zf3ttW3b8fp7umZqXqe6qo6dSr9773nnjpVXbdSjnU5eXl5DapWrXrk/v37u+M7V6pUqTVhM3xj4pWAqAF+C+m9JH8kvo5wKenvCAtr1qw5Z/78+cUWSouARcAikEoEJHwqpEMod0G4Xo3vCwDH4KuUAIg91PP5vn37phJO+OGHH74uQV22qEXAImARCCBQ4QQ0gvnMypUr38PoT4zzHvgZvm342vgacZaZiXb9yOLFi9+Ik9+yWQQsAhaBMAQqjIBu1apVo+rVq48CgfPCUMjJWQ5tLtrvXATrF3v37v2B+OolS5Zs8vJ26tSp8Z49e/LgyyMvD76j8PmkW3h5ob2NH0Q9a7x5Nm0RsAhYBGIhUCEEdG5ubvMqVapMB4wOBiDLiL+AAH0BTfdLg55UtG3btp0peBnC+jrCPKOSJdi3T1qwYMFKg2ajFgGLgEUgJgKVY3KUAwaE8/MMwxXOGxHK17Vp06Y9tuLBqRDOgoh6ivAPUm9H6r8e0gbRcXlo3GMORO2vRcAiYBGIH4Fyr0F36NChG4t33ziQ/IiG2+v7779fFD9EyXG2b9++A4J6FqUbqwba7U67bj+Sq9SWsghYBCoUAuVeg8ae3NW4ouMzIZzVntpBKL/ots1Loosbt6FFwCJgEYgHgXItoNu1a9cGIXmuCwQa7fldunQ52E2nM0SDPkTtGW1oL7V1FgGLgEUgbgTKnYmD3Rq12K1xCQgU4E/De19CKxGct2AvnkReWhwvhj60MYSXQzujAUj7PyI9fNeuXa+sWrVqu5FnoxYBi4BFIAyBciOgsTX3xJxRgFC8glHWDxuphwDfp5gdhrOA+NKiRYu2eLITTtL+QdQnbf03+Fh7rDcjrF/CD2cL3uyEG7MFLAIWgQqBQJkW0OxJbskOiQFcqQK8trl5nf6W/R3+FG+Gkd5BfAb+Y7z2Qhc1aNBg6dy5c3cbPCFRaekI9jz+8NKRjGMp05PwJLz3jyx7oFXFy6m+aoFY6M+3EtTUNQa79brQLJuyCFgEKjICZU5A80/AmgjHC9FWpS2fwcWr4rmAu6G/BW0EZ2RM2blz5yUIwBc8PLGS+2H4iXJbqUt/VlG6FumapGVLboSP5paS+Ri8LSlzlxiJX0Og8zyuJTwb7wpuogEnAf4m+cPZt/3WtGnTJNytswhYBCowAqUuoGUaAP9WmCdaEjZAk6xFWFPXBCG8EcG2DdpqBJcEZH/IV+EbKt/jdP7FCHjGY19e6+axWHcltEQFtFs8kXAZzFPwb7C/+h3Cvdii7yO8Fy93NfRAP3jJNOMlM5B+DYLut7tjNfQxjH8EJpBCFTZcFfZaH1SrVq09RUVFWw26jVoELALlDAGvFpfW4eXn51ddtmzZCTQizfdYfHeEUCs1iiBWkIPQCoT6cWnwBGmeiAT4OGgjMQ/M9eSlI6kzOaRV688uRcQLicuEMo/2497j7Pz1+zHKPcYLpBfhIOq7grAeXq45/nZeTLcj5DUuXadm+Kb4gNu9e3cOeYqrT2sov5y+uH2ag5nms2hmmkAl9sciYBHIagQyIqARQj0QIL9GOF8JGn7ab7Ig1aVeSalc/Bf4iJI82Qacco/pX4fEf3l7lLBCtziCfSbxmWA0nrGMIt7azXPCHp60N1kHQnuEc3vCfGVST87GjRu3I8A/IT4RbX1CKhZCVbd1FgGLQOYQSKuARkB0ZCiPISQuijCkvdCLEC6L4FlJXDZaaaiyv0qllr23Ll4CuK0TKu26akTOkactaY9/RJC+6WY6YSqE6g7qSrgexlKFsQS6Qehbnn5r58eD8B7h9DdSIHPGT/hdeGnNVSlTj3qFxyF4r9Ppe33J78sM5G+8AIZUq1bt4cLCwvVeRpu2CFgEshOBtAnotm3bXsCQZX4wBeo+hMp0pu6vQf+8uLj4y7Vr10rYxO3YudGOnRu9qScf4XMeBd0Fu87EJ9Pu37FB30Y8oE1j215De3HXnypGbOs1aFvCN+CIy64cdLK9M4YxeOFkOglymTU+I28u2u8XW7duLYqGU4sWLWrj8hDEeWByGOW0a+VkvOz7cppp/PHnn38eyAthkM9L7ACX/bUIWASyCoED6l2Ku4QQOIkqp+HdHRbS/J7kVLcxqTzVrVu3btXZpXExwkc7JQ7Hu+4RhNCdSohnx44d3xMN2LpdhgTD+6nvvnjL8JLIRVAOh/80p8yKhg0btnNtwk2bNq2Dm0Ved6POQuKjGItO11tq0JONVqEfav/X9OVSQvdlvJc2rqKNiclWbMtZBCwCmUEgHQK6EgL6W7of2J2AcJjEglYB9ueNaRxSFdq8nfofwEtd3ovW3Bm7qwRzTt6BQ/onE3WFlMiJuLgENFrxoWixv6HiArxMDHJ7EIjnIhDfPZDM0eLeM8RvcdKbCW/jBTCKMC02dNrrRN3P4aVZy8mU1Ik+BXe7HCDbX4uARSCbEEj53B9h0IEBulvH5rOb4LI0C2fhuRcB9zDhECVwVRCUZx6I5uSwa+IdXhRKp1QgSVPG92PMT+ILaXM+bUjwusJ5De32NYUzLwttIbwWL7cTQdmbvo8gnhbhrEaofwEafB/68o7SOJk++gVi9sciYBHIWgSS1SgjDggh1ci1+SJ8trjT+ogFUpiBANL2t0CNhCG7Rdgt8QHC8Uj69hcYfo2XoIzXnYcg1jcMa1CgPl57ttvgI9WxE97nweIBhKP3paDtcm65eQjvL0mn3ek6sFD4Ig0FXlz0r23aG7UNWAQsAiVCIGUmDqb33RCK2s+rP5NICLnuaQTVYLTYnS4hHSEarOys4/HVVT8C6B6EskweYa5169YtsIcXwKMyR4cxJE/QJ7NeZbwjli5dutqvGnBqT/4iJ09fCT+Pfr7tx5tKmhYlWaicRntHqV7CiaQHpvu6pHIMti6LQEVDoEQCmn+0NUTQXQVoBfhjo4C3gLw7+ffb5Pnz5/8chS/hLEcrvpuCl5mFEUARBbTJh2CXJnwi/jgJLwRsO+It8O4CJ9Ewp+2Bq+D/Af4viM/Bz0BbXhbG6SF4BLRy91HPs/i707VXGc35LPr5T9pq7+mO1gXG0/YIXhLaOWKdRcAikEUIJCOgq/DA92UMBTz0FxJq2h+vWwfjOMwMk9gq92mS2pt2JxyGUDmLui7GH+/XOPlxCWi/sj169Ki2adOmZmiYddjmVgcejXEX6W2kt6GBr072rAwfAe12QfucJzjCciZx333TLnOsULME9j1fyDW6njoDWnOMMl/CN5wy4+xe6RhI2WyLQIYQiFtAo6l2QbDKLDCAh14aptcthTCKfJ3OJltnLLcbvm/ED+P3xNdRv7bj/Uxcwuog8mSuqE+6OT6PtDRACRsJTa/T377nwOfaWJMW0N6KU5mOIqDNZvQi+xgvk8l8XgrajbIODVv4hAjuzp0712OXjPDJBb+25B9L/DhCbeHzXl9pzA3xcj/itYfcO1PYBY6ToA9Hq36PULMF6ywCFoFSQMD7AId0gel/fR7WK7CZSjD3DMk8kNgO/RWiOgtjGuE+ysjUoSl/ptwC+jAMIfUc2t8FCKeRahhaWRbQ0bDbRqbMRNLqa0djNPL0EnwSAb6ea/m6Q/8b5qknwe0asCqApn99et0K8kbhR7hbFr0MNm0RsAikDwG/XRyVMSGc7jy0+hNILeLeHsyQIESzK40zHtbSn//SvhbW3sTuu9DtHKYXN5pUKNPG5s2b9VXuXHxzKmmCr4V3d11sJy7tXtr+SoRbUaTFQHjS5TR78JtBmO1Jy/6CMUzBT8aUpBfmfl6e+udl0Dl/GnoIwsNc85MJrwVb2fLd+ltR/m78XWA7Hfpw/vTzsv0aDEhYZxHIAAJBAc3D25GH8xoexoG029qnbWlTo8kfpX21PvmpJBVRmTS9zbRZTKjzOYr4q3JhKvdUa2cD4zkdL5t6Tw4Y6koos0pMhyaawwtKfzrZBPM8/EfU8yHb5mYST7dZYDdtrMIXg8tW+rKJUAuW3xIWEn5DP7zb+2CP6PbDLwE8HZPJreB8BfUMIt3LKVGJOnsT780Z2/9AmL9IWkehfurk28AiYBFIAwJVETCnU+99+BN56LyqsrbGvQZ9JA/wVOJp+zMFdZvuM14Cg01CKuPY03ujAd+AYLuEel3tONkmdKDTafIItfvBUxq+znL+J5gtTbbSGOWmgs85MXiSynbOmH6ews9r3YGxSKseQLqZU6HWBm6QZ6yBr8FAH8tYE3khOFXZwCJgEYiGgDToiXh34cjlXU7kIYTMi2hJ0hDjdghzLTLFzZ9ixuB5yfRdJ9CFOASK7KxP488OyfglsYHoPMbwHWPQNjqlt1CXqxFLmEtAtca3hS+PdCe8hLTrmkL/E/m/o71ntm3bdo950BFmkX3SvEvJBWcH9C/my5ZrX0g/b+cc77sw5eiFIGGtUKcIyh1K+glCmUgeRUjfE6DaH4uARSAlCEhAe4WzKm6Nvw4tszJ7nV9IxKyAAFrIV7VllqirijLlEBCHIxj/7LZH17U/OejQBrW74yV8/SCRv1oTn4KQmcAWutkIpCVGXrxR2ey7015v2j+fQqfiJYElDG/jUKQzMaWcySLbCtI5tLMGAa1FvqCwFD0DTn26zmgnbu3e2VKonR2TGEtPXljCUfeI66qB4R0k4hLQvLjEG+LAbgMC/rkQYgYS9OUc2r6B66fdL4fQpOz36/D6CIKu2QKu1wPp2qNO/RXKsZZxNrge7h00+I9znxHlwfc7+GqZfNxjO9iM8HeTlmjcmT2f4FPuVXM9yye/VEgS0JFcDzJ6aKWfm/g14sMZwAeEUTWvFStW7ID//+D7Kz7tjra000QX8y4ac80VM7iQH7qNI0A7w/Mq6doOTQ/fg9DGMKbNLl+S4T4Ey5eUlf87N0AeD/Qfqf9G0tI0dYDSm5yqd6z+pCN8uPn0Re8B5GXE8Y3DtvRpKI31cRosZh/6y/E2Tt/rcmrgZfR5EGM5mXJ+UyRXq46n2ke8TFwLrTtkVEBz76gfd9B2yJd8oLWUh65nIGfXrl1PEWxRPBscR+42RhF6MJG+MBZ9q1Oz4YX4uTwf3yRSPoW8MiuaikKgahSXmUT0Qgw47jW97Bs7yUDAvbeeSIkENC+Cs6hjsFmv4mCj+0/YZJWLJqDdjkroXSXPDS2tayRAjYymbSL0/hfeDvBejU+5Qwbqw7HSVLXLRN8crGc08g037+WkpQkFHOA/TsQVzu8inK5MZFbgVBNX4OByK5rmCHCaTKHm+MO3b98+kFC2XS0u/oE+6C3eUek0ucpcg15gcz3jv5I2XI1dL9ib4th9UgmcT+GGLmDnxmWU8ZsRzYHeCW+aeEhmv+P65HN9wjR5v54zI9zjRy8tGi+MetxDNyTaPvdCsAj3hj7X9iiCehTEXzKCHDaSDQjEI6DNfuaSuJeH9h4u8IfEh3OTv4pQ2mkyEdfpcv3RXGfqJiDtbtvysEVM1tbB/LxVa1N/bdrT17HVtoT+MXj9JdsVOG4lEjwj0PR+57MNLN9h2sJe6cvom7bKpdUxXZuHELiZ/r+uhsAhnyAgoNne9lOrVq1O4MEfDe1cfIkdWDfloW0HLsfgj6fCM/CH0K5Z94/k9Ufjf88kmnHq0VnW18Cn/dHtzDwnrhP6xuK1N/pb7oMF0MucgOa6aIYTl+OFvzsuxrLF1IVrPILrdx5mzCuT/Wds2Rpy2ettogLaHWFlIqfLIzw3cZFfID4cwfe5y6AQQfAMgvYlBO1t3Aw3Q/Kzd5tF3PglaJiaCkmweaefLo8b/kzkVfgejDJtczXsqvRFM4K0C2h1jjGb4z1INNdh6thA/HzMHVfAdzfxw9y8WCH8x4G5tFe9pFRvM3wthA6Br9sGPv8i53Gu0Tovh77IUqNGjUvhKSAvH19ZuBtOGL+BH8nD/HY5eZh1/8bl9AX1uBjLJtOly5cvf5iuB9dvyuYwymevkxXQJhrSniR8b0ZofE04HLv1WGmJYnLCu/kTyH3r16/XVrRLEOonI2Q6ky1Bn4xbSaFZ1DEJ/wYa/KY4K5FG/i79HIigUl/T5tCeL6Stf8RoYD8vlRfheYk+aT92P/C5iLQWqyI6eA4mUz6ak1CZhn8FTX2iz/kalWjzRPIL8P3wIS8Q0nLzaGsks47xbnlwO5BThn91yBfd15+Qwhzj/SdEnUi4h3gNMbD1UH9QKreO+04muafNRbpyO9gyNrBUCGhzyN1J/A3t91Ee/jeID+eBfodwr3MutOLyOdwQB3Fj6GvfbUnmEuYhuGsRapeFK7i1MKND7SWQl/HALEb4/9f5BxykpNyRlJpL//7JQzgU4V6YVC0RClHvSWTdQd3nRWDxI+8Hp6lkyN8MNl0Zs3YVHMuY20NrQzyPMGRVm7Sc1ObV+CX4ZfgvwXE25o65zp5mSL846m7FLELmi2ug+tnApWHrC+MjmAF99UvJlMYGe2ujPc0oMuIYu2Ycfm4BL8xb/TLKCG0r/XzWp6+aNepaa9YQeOl4eGo49+u/PfR0JF+l0kXeirlfF3tpNp38J6BiYaep96XyCCwJ19H4EQihhYQBx9tawld2bPlMu2o0eBuC7Db6N5P4K8Q/xC78daLTd2ljaJjHc4NrdnAxdclOXhK3D2zmU4H8SE9FlWivAe1Vk12UPu/gBbPTwxOWZFy10KKlmRfQzz70030Burw6uGoKD8mI+vXrT0n3Rxa4D7QuUWoO+CKZg74utU6lpuHNYBv28nOrZn3hCK79x6Rdk5+bJXPcCSTSLqB5Ab5FO/LWxYFAqjVovyZbQrxTHmE4lxtkKH8XHs+Ws2I/5lKg9aLNXgiuHHZ27KSPhaQX08+V3LQy00iDV1+lhdSALlOATBC50PNI6w8rBCE2W93w66HpxXQbPlVufyK7T7Bv92BcA2m8P/5gn058C01/39c/Rdf65Gc7qUpeXl5rOpnLy2U3fg2zK2li+2N03E+L1DVL2T3JTKUJf5nfE+l60e9mtNeQe6Q+L9q6hHu5Vht47y7QVswY/U8qm2v8Jff3GArf4q2A9nVPlwunbYjMEnOFL5gWM+tegeKxNgWKRyXqbst1PUTXDL+N+n/ipSi7395UgqfFet3PmRDQZr9l0hjCtq2nEB6TiQ9lbO/DEOuBMutIZ1xCWCaQI+lbsB1u3mDcjPjQdZFm48fWrl17THFxcWtATqWANpv3jbPnuTltXk7mIMYgjcnLtwm6zp3WHvBPvJmZSCMkPvdpZyn90awr4Lg//kw/r3DTbsgDcR3j04d4b4Z2GT4gWEjnYFrT2SjLoY1nYe8BrxJAnbfDdzl1RNpVdJ63b+D0E1rfWTwwvyVeQN0hjof0VmY8s0R0BMO1tHEZbeg/BH0hT6NsN8pKETge302sePMPU3o5BBbEtaWPPujY3H8jUMfC98uNSCIF7psIdQRfWs5Z4pO8fIxhViQTEC8kmUlmeMuQXsB1vdqlcw3+wtg0mwtx4Hg9OH4RQkwgoVkiC923UvcA7oPD3KLUm0O/cjhnZy+4SpAmLPN4meqo5T9T9lzqbqo65VSvHPXKGvAR6WeY0QZMuIEM44dxP07fTjVIgSgv5AtYpF2lBO3IzHsD0QvxhxJvlXBnVVEKnGzN/ahHH1wtItRC2XAu5LIU1J3JKrbRWCFjkTniPabOb7uLo+oEwlJB2p0eDjSGvlxQndUtM4v3uupO+oAHbAx7aCemS0NLYKA9fHjrmjRudv2dPoyPMT7HGI+G98BTYhY6EJdGfQf7zvshaE52b36HTXlhdTp5EpAHE5cPOtparQR5LQjCypJfX9oO/foLD++v4NFLPujI08cl/hskxI7o2vWiTC+ejX587PfSFGh+wVapdx99DqbdCPT1bpyxSFiHjZVr8qPL4w3Z3lqZl0tYGfiqeHj1UITxcf+GXH9PmahJnrOuvLTfYlzRHjj1o2PUisIzK3H9/hdsZDbyPlMmt2bV54Pb+Vyzt7gP+ntnTvStPTxh46bf1WlDitS95F+AD8ErWqPwZsR1phV1TnurP2AgQxs1avR6Km/KFIxiHQDeQz1b6F8xF6KYGwoFZ7FeKPtTUH9SVSCYu/HQDMBfS/+a0DdvPTLXvIQviy8/71jc9DFuJFoIHu14Yb4Gzwn4MGCilU0kD8xvpy39ISiogZrluVe2+VwXkyVa/PwNGzY8CMPt0ZgSzAtql55ySz3pMpFEM20Nvh/R2Sap7jB1/526f5tgvWczc9J6Vs94FCHujyHU3wfvq3Bkg4B2x68OagGrD9ORjbxVJpJ+VnYzl6EUw41M7YaWYvvBprnwjZjKaQp9E/6oYMYvkc3cVC+BY6mZMH7pSqnHjuMhu4hrJ0GdLhc2bTUbwl65nReFSUooznX8Ddf8EWfffEJlvcyYYNqh3Q3y0pVG4ZjsR892Gvf6s/QxHcL5oiSEswvXEVzzR0j83iVECWUGi+iySUCbndTiiWwxOtJyLuEYbvQxJbhJt1NHbbOBTMSZvrQz2pE5JFlXBRxOFSbcNLpxdDiRWVfQhFHBDtSXZrwLH2JWMIEBqwGk0ymgzebC4jyo7nXfROZmvNJaBNxphLqY0mxz8V6nPxGdAvF1b4ZPug4vJD03IQ4M6uI7I5z7kRFmf+de0vdBPwkpVAYSzCCPQkk5L1JXGfMPjG0joeRJY/hkiojHVaHM0xEYF1LXO+RLpmgDxIn4PHyIg+cG+qdDtiKahUIKREhkq4A2uyu7TQ/sWw9x873CwIcz6I+gJTJtnQl/H7PSdMdlF6ONf7ntcEH9FlDcbN+QNYMjGe8gvBZZGlOHl0/2+5FMqcaUcG+4t96sTYPB20wLR6HxSajIxLQPnLSI8xzxk3w6fio0zc70EnsMLEcSdqeeEYReN5n8+0wiAmC3mY4zroOJtGNpNfeqhLIEcCxXmZewzFGX+TB2hxaPgG7IuDRlDnP0JYzmEFYiuHV/7Y3EkK10ro1s/n5uFzhczuw7ZKETfHWw2hPkXedXyKUhZ86Ap42bNsJxrJNdQzqIlb7CxIT/FWjnG3yK1uQevZzwGQ89nqSE/2yU0m1lQUC7A6oNaFoEGwDQyyGOB4AhHPqz2GWIFHIh7+EB7k1+8nPNSJV76FzcQyDpdL0/Erqa3UJWa4d5WH2Tzr7qfpSXJhS2qABtCzfZf8gfzc3yPun9vhWVUyLjfgqTxTvm8BDUheB+KXkroHuvcQPyWlJmuTz5y9FsqsNrVuHGtWNDM7ZEnf51qM/ASXH4mDPAZ5lngMdZmRbvZJoKE9DQG8VZR6Js83k2+vAMrUm0YJbwnxahHw95hbP4eF42Izt+ilAmSAZvzTS8bjdKokwWQeEsBq2VUeefiHoFtBaWe0GPR0BrRjUNP50y09mG/LlOviQddWVS+dnqWtOxOzAh/BlwArsTok3teYA/xab9KwY/nHJhU7ySDlJb23gB6DuOMj+cS32uYNZF+o70BTEWDEwTxoXUUd3TJ2l/s6hrNFv3xiXx8HuqK39JBOs67oXZjCxMiwbPXOgSzulwj6HpPFoC81uwT9xD6+lrMG1EgveTQUtFVFu5HueF9YeSTsVT0ZlE6nA010N9yuznpTPUh54I6RgfZk47KFzvQ5fgX8C9t5W8ep58ma1iuVvYATPK54C3QLmypEH7DVRT1z7c1H146zyNEJ6A0B7CzTbPy8wbdQI34jdcPAnp4735MdJ1uABqpxZ8tRCUzQn10OfhpeX6TYekVY2gX3/w7seFP+Cc7UHXkCjA60ssAbrxoyn8C/HOFIxyFTIK3v8FQz8B3TCNgMxJVDhzn2ovrT7I24w+H0wo34h7szvpNHY1rGo19iva7sG3KI/3OxogrESWEDAr5NEVryKj3i1DIUt6RsDZ59VR9mSeDHFcl1UhhPDEWkheAR1z5sN9MD2ScFYTZV1AmzA1AER9Z1ALi/O46UYg2MaZ+xER3N9S4ARslmcCjEwQmiJVMSuJEG8F/b04Hx596FZ/BHmU9r731qddGCwcXU1+AXl+Jgy9iSfSf/277xPiYVIbmnU+CICZsPNzerGWqsPMcir9+zWd0D3XnHigP24Y570Vaww7qGeyl4k2ZPbRrPNwvNcEpD/JdMUOfS95mqqXCcc4dZaPX18lKJN2mKcaIRv8MNIJkp9HqbiFT15dH1pCpPIkoM2BH80FPJrFsyd4MCYhtMegrb7lnrPBG1Y2zHf0zy9swxfBq4fmWHwHs5I441pE0h8R5lDPm2jM77v2I6N8ZS7uaeQP5Ka6FLrfjhItKmXb3+CNIWR/FPy2R3ho/TStjAxIU3H2Mj9PvwZmoMH1mHq0MOXrmEG24ll4hczjvAz0b1B+fv5g9xnx5mdbmmtdL8K1XleSviKcI+300CzMT6GK1lxMe3e0wsorrwLaHXcNLqKO8OyHJr0SITmWC/Ccq9k6//p7Hmb5HGm3CPVOmElyuZFbUa4JZNUREKikNxGX8V5v6aWkl1DfAurbRTrMObsLriSjAJ9LWS/PCgjjzD55GWw6fgS4ZjoUxa+AL9GPMdU0puKP06dMCOeYXec+XYGiciX39yKYK3sKNOJfl3nQFtHfsBvVw1vqSa51pJlvMrtuguPhGZUJM5guSYR6VpakvMqWdwFt4tOShI4BvQNBHdBWvQtuji3xU/jkk3LUra08WugbQAWn471Xeyf5b5CfbeeQJDVeWygyArygm5F7SwQOCUGZwJbg9cKX5iftTWaQtDnteuIeXUADXbyN8GxobWURuxV2Y/LwZmvBO2zqH8aUIQJ92eGj8Kj1+iXpguotSXmzLP2zAtoEJIF4D8Abwhe3H8cE4m5Zm5pAeS9rZW56/d1XQrk/od9OkcBLAQ39hbK0GOMdqE3HjwAP+xlw+wm1leSdhTniG7M2w05tktMR97XVM5NrrMYQ1Jol+jnfv7P7Maabli4BjcmzmDUiv+6v4Lme4pcRhfZ+lLy4siqSBu0HiBYaJFS1t7qQcCTpuI/epEwnylyNvwafx01DEOL0Bh2LH8ZWnIUhOTZR7hHgfmjrN0joT3uFsx9fGmmtItStP9XksO2rGC3aj6VE2qlfhcnSeE71bPm5jhBlvtnnlxmLxr821/OC0vTBKxs3s2h/Y6zyqc732qFSXX9Zqk9Tvkd4eGSrfo+tUP20wOMdAAstB6HpDBQPeRLq9+Lz8K6TCUO7MC7gTyd5CObBVji70FSskPvAu+0qAAACYE1pIcF93Ze2ZcoIc+x6WiWis2d/QxgDp8E1bdrUb3bow5pekva900KxTysHMcY+PvS4SM56kkxAXteR5/4QLzHdae9bIt3tlYX6tfjgHtq0GkE8mgdqJNM/2bD1RZJLCAOLhp7BzJT2zUM5gZsnoInwxvWw2GRFQoD7wU+A5HAvHQEOY+LFgnsqXqFYVQci+dXLn2ma0G5P8v7qlw9tDbubitw8+r6Udr37eGtyzrkUkjvw+11efXQYjftsN53BULunTvK2R7+fRpE6Q4uiZh6CuynpPJPmF6f8XMZ/qCdP/z4dR71XU++Pnry0Ja2Ajg6tNI07uLF1Q4Y5LuQqBPbLZAxDGH8VxmAJFRoB7o/FPNRhGEC7hRf/cu6dT7m36sHXDtqR+NPCmCFAz+/SpcvBkf7JZpRpxuKeFh7DHO2E0UwCbUwkHewsfZpF+iiTR3Ho+vfuxYTfktQOp9aEMvVlXJbQBx1aFCag6UsXsF2EQNa/bzeR1oumPV5KVkxHnRNgkunT6/pQ7zLGr/3QS+HbRv3V8XWI14JWk7gOptKWPLV5OrPnrwmTdhkHNemeZk/BXXTlPS7CaEwYr5WVfaPZA1/F6QnC8mO2tEnoeRcn9DA/5QpN7qVYoLRGA14Ok0wme2MxJ5G/mb48YJajT28jbG4xaUa8A/kdjHSpRMF3HPhqRhBmioSmz9PlJ9MxPpLwDtsjF1PWbw2hJnS9FE6i/kD15vUz42SWeFE1+ms10Lz9MRB4jJuiOW/F89GYJ1rhbCBjo2EIOAd5vR2WkRxBylQ6hLPWTC52bLrBnnF/v0lCayxZ64QvfR+S6g7qACQErRYEY745o7XNS8/vxRGtSFieFdBhkEQmML35wPzreGROm2MROIAA94y00BL/o4w6tqcB07n0ryfC+UOfuvchYPpD3+aT50fa6UdMNw0B/Sfa+CDV7fCC0iaA6/Da0ZGUY9HVCuikkLOFLAIZQoCFtyUIkZ5oZNNiNPkN+XciMLvC+zhx717lVAjojdQ7G/8MbZzCTPBYuqeFNl/HYtg8+qOp/Ke+DAeI2pHyCHwyB5RI44zSRsQs7brgA8FaoLwLH1ic92NmDNqhol1az/vl+9HAZzj0nvi38PGOTXhMxt8PJgsJS+Q0bbLOIpBRBDATeXcH5LALIGT6zsdtB/Onnnu9HWvSpEkxQsVLDqQROk+itTzrzaxXr16IFshf+j/j4QvrA21G+oNGDjbg/4dGKcEZ4rx1h2Q6CTTURURPZQeAviHZm342R1BIu1qN12LhTMakB9t1t/MvxL/Ccwpeuwma4bXYFXBM7Zey/hHWfzffG9Lv/dQfLO/Nj5amnAR4T7aYdVDfqasF/a9Lv1aQ/hJNcwb5gWtHnw721uW9rpwU93uu6+1ePhbetlJXkEzdHfEhtnuNI8hgRJyzbx5mW+wTmzdvPpH+HU7ZxvBXgW0ZfZ2DINc49oNrTfLC2td9ZVQZjHKfaEHwHOeL7SdRtj316uTBaoRbCDdR/3p4FhJfFAlnXiIDt27dGqZRMyPfEmzMJ1IJYHwH7cNb4UlcgLO4AO9UeCAMALh/tGe0o0jczCEPlMFmoxYBi0ASCFgbdBKg2SIWAYuARSATCFgBnQmUbRsWAYuARSAJBKyATgI0W8QiYBGwCGQCASugM4GybcMiYBGwCCSBgBXQSYBmi1gELAIWgUwgYAV0JlC2bVgELAIWgSQQsAI6CdBsEYuARcAikAkErIDOBMq2DYuARcAikAQC9p+ESYBmi2QPAjqLmC+p68vsdfkj0Xf8G+3j7Omd7UkqEdBZ13ySqi7X+KtU1pvNdVkNOpuvTjnuG/9ALMTrMJ4SOYTzi1TwMF4fWehVospSVJi/RffQiyNF1aWkGgm31q1bt0hJZaVUCUcEDOQa31dKzZdKs1aDLhXYbaOcl/BXzjKYV0Ik9Nfys9Ccz+Av+B+VsK6UFWdsn3EGxdFUqPMfssIh3B7lDIzv6EykL6pkRT9tJ0IRsAI6FA+byhACTFMnlLSpzp0712XKq0NrAt/SK2l9trxFINsQsAI6265IBekP5o1XmK4+z0lvOsox6KA/ggZamzx9Nqg38d0I4A8wZfzGObUswAtffYTzNKfgq6R3wfsUgn+sQ8vB1HAF8dPxj5F3m+gc6PQbhXK5ubld+SLHU0Rb4pvgt8Cnr7o/SDzEUX8bCH/D96RvsO3XGc8fUt//uIwyIVSrVm0S6UrUO54yOiJ0Djw6EzrgaLM5eW9w6t75aLQDqOcK8nu4+QopN4cxF3AC27cuHdp70P4KbZZLU8hLqh4n7T1B3snU1Qivl9W9jOENl4+y44ifTr9PJH6O6Jyulg+ewRPcoL9B/t+4HsGzlaGNgfYKtNfduhRCv49gC23OYhy/J5wJz9+V5zqnncGkdZDWKuoZ5eVxeSOFXL8CxqPr1orya4nXIT7Xj5/29JWT+/Dd8Gvhf5n2HiK+Dx9w1HcYdYzgGp1WVFQUPM6Vsv+G/hmYDXN5FcKvk/E04+iK34H/jGt2x4IFC1YSDzrK62vn79OmlI6LKZNHuJD0nfRhBvEQx6e4BpD3R4it8ToCdg1l7qL96SGMJKwN2ouITWcKgW7clI28jXHjtsPnQ5/Cw38m8d/BdwnHVPYzefks0Xby7heNUMeAShh4FwgPoezleAm1+vC9TBh0PKg/kfckhAIePAne3+Hv4VhQnQHsdcPg3Q3xTHnif8K0EvJygaaHTf3QCZFPK47wCjl/mHR16D0Q0l/Ar7pChAJpuaOpW8LIdEfAL0EQ4jBd/B+EPuTpCM1T8DdBCxFi1CXhqfOmP8Crf4M5XnMnoekkvPRSNF1XyurF5XW5EO6E/2Xw+gk/1WRAYHUnPYH8oeB6DPl3E78P+iUmX7Q4QqwvZYbA8y/8CfTjKurxNWMhSCXo3oL/NbUH7++J30R7N5ptNGjQoIh0R15o+S6do2f1+bGBXJdCl6aQY0mbUYc++/U59fUl/0rIDcH2FZNPccxZUnR7wC9Bfje+L34Z6Rfz8/NDlGDGdQR1DsU/jD+eun8F32PciysoE+ZCCoflWoJFoHQQeBOt8gWn6e94AF8l3hsvTTDg9FkiHqJpPDgS0DPQVL5388yQPGlvJ6B5bjHpikP7keBdg/4DD/XXPDASMLMMuqKiXU+/vnboEnghbsWKFdKyplJHDi+X2c5ZyiE8boI+nUuX57rpZEP6egF1/YF+TY5UB/2YTZ+kgf6AlhYQpvBHYo+XPh2Bd6Wug7cA7QzgurxKG2OdvJUIpjHQLiKtaxmPuxom1fFvl5kxqNOHu2k3RMhdDgazGNszDk3tPQtN7UnAB5z6Sh3vkzgDH5hhIBhPJr6T2c9s8xair/oIwI/Q/kIYOJKZ2c9vebHqHmlDv5ZBD3H0436wXiIiZ2PfystiDUd362UfVBzo02GkV1KvtG3Vuwgf0VkBHREam5EtCHDjr+aB6ZJMfxAWG3gYwoSzWxfacnuE6WmkW9NGc/jziNdw841Q2ucIHvzJ8H3Ag/oJU92kpRzllxp1JxXt1q1bdWYWTXjoQ7S/pCpLsBA4rfQTzqqG/ugr5VsQZH2MaqtDk+Ydl6MOacXvxcOs9uDb5mmvLrSw9uiDtOI/uPUS1yxtqvf7otBawbsQvoBwFj/Cdglt/Ey0DT5MQIvHdfo0HrwruVdaujSFpD/lfm5O3mz1BdLHfChixqpVq2QOC3OVwyiWYBHIMgS4qX/mZq6Z6m7xkJzHwzKPh1HCX182mUS41q8dTCrXQL8JLzv19Ux1iyj/lB9vCmh0ZV/MZ5MvT0vBqgRvmBabaB8Y0z58zDbjrLcBfCfh7zB8B+Kf4+N1MvHsjJNZ7R2NN9s7lvRMb3nuJQnFzo5ZRNkyV4nmdXpJSxibTsJaNL8XuMnnxndxbaq5CYXM2r6nvUPx0qA7ce89z/rKEhQF9T/MWQ06DBJLqCgI8HAM5AEaxdRYCzYBh9DVQx7mHG1RNmz5HDTpvpSfghZ7u7l46RTci4ZcxYknE2yleO1YBaV10d/tCJ3GsXgRCHvpb8Tnnbyt+JhtxmpH+bQlu7QWR++Khz8Cz2roTSPkhZCd9t6nvWtDMnwSzKaWg9m3lOmDkJ5KeCiLzWECWnVSvJFZhWOvruPkmVl+cV1/fdpM4whx3G+aPT3hEPVVq8nM4gpIz3NowSBVb8xghTZiESgrCPCgSWiZQqkSfddUPETr8RsP5cSzA+G8xyd/A4K/hQ89XpJMJye6zNgztXinxUU/9w397e+XYdLo7wb4ovXpB/rcyy3TtGlTabB13XSC4SfwX8zLK9nyau47+nwhmqWrrUpWNVOGj1N7Z3fp0uVgn7wwEvVKIJ/BeLWY9/Xy5ctXeZnASsLyWJnA3LwaNWpcTnwbAn2BS4sU8gK/irzavDy/jMRj0KvDt9VIB6MR36hBDhuxCJRTBHhQR/MgvoYGcwhDlEDqTHoX9D+xADlDi2vu0HngPoSuHQ1adJQQP47wIdL7XB4jnEzec9T7GbQVaHY3G3kxoypL/c9QXotZ0sRkx/Q18cD3F/j/A68+MKvpsz7o+g80xZc8DalPr8OnMVRHOA1gfGsMnmGqB61SH1zdSbwDefWM/LijaP+jqeNG7OMLqO8z+lQbXwchNJJ+DY2nInifpY5BlJtPnxfTH5kFZGKY4y3fqFGj1zH3/J7dGd/Bq3y9PPVymAz2D3v5qUYC+j/UeRrhSG++0mi506lrIn2YS6j7QJrzMYT/4ywGiy3E0Wddh2UQpXkfB/9gZyE6yEe+TD8v0vZyws34NvA1ArMbg0xGxApoAwwbzRwC3MyX7ty5M2z6x406mF7sMnuCvXcYK+IvmjTFETBbEQB6aFZ485z0S9z870bIy0FYvMUDczgPi7a1rYf3M+rU4tap9CNEq6K/A5mGtoOu7Ve7KfMV5X1X4NF4b2SRSNvEDsYvNNuvXbv2asZ9DH8F38Qio5kVjEuIobnNoL2utLsBG+Un27dvV3xxkMmJIEjegzcX3iPp08GMYzVYfevlQ1BNge8E+LrBtwFMJRyCjvw3wbIL/T2CdrYhXKezwyEXrfHHIJMToY37wWGvl+6mtWMG7bkHfe4N7RDqK6bdDZT5zuWJFVLHCl6SXenryfhqCN9PVYb+1PKWdcxPvRnfyfStJfzb1R5j8QWY9YSPNm3adIrqYYxLvPW5aTDpT51HUWdXaLon9TV4CWBfR3sPMlZtki+mD1/BKyEc4th/PgdczoWol2596ta1mA7vjhBGJ2G/6u2HSgQaYNqvenuwQZjpIegoMjeZTATWWQQqFAIyrfAC+Qn50JYX/JJUDr5yKiuzdVkELAIWAYtA6hCwAjp1WNqaLAIWgQqIANqzFornYlb5OdXDtzboVCNq67MIWAQqFAKY9mTP11pIyp0EtIzTYYb3lLdkKyxXCLCA04UFkWsYVKtyNTA7GItAFiFQlRXHB1hxvJ8+WW06iy5MNnaFBUEdOHQFiyEFhDpjwHTmli2TbuMWAYtAkghUZpvOQzxwrRHUf+ahi3sbTJLt2WJlD4HK7AE+A+E8jq6v5j4Z4hHO2pv6Cb5f2Rua7bFFILsRCNsWxV7IHghsfVrmV3Q95K+O2T2U9PcOXCrMNjsEchsQ1b+htIG+rQ+6K6GNxQ/DBhey19eH15IsAhaBJBAIE9BuHdgYayKkz8ffAO10fERet0x5D8u7gNZZA2zcPy/KNde/7CaBwxiOXnzLewJYeb/+dnwWgUwjEJfQRauWCeRqOncTPi/TncyW9sqpgK6MttyL6zsA4atr7Hd+gs4tHsPB5GMLCwvXZ8v1sP2wCJR3BOIS0AYIephP40EeyAN9GfQKtfujPAlo/sLaivH05xpej29vXGM3KnvzRBLDWKf4yiXa0CJgEcgcAokK6GDPMIE04L/1+pyQbJRHBzPKcaSsC+g4zFY6b+A9ruloTBivWRNGOb6Z7dDKBAJJC2hzdGhj3RBeA6D9Gt/YzCtP8bIqoJ2F3xuY+WjRz++EMh2uM5pDdoZxgM9P5ema2bFYBMoyAikR0C4ACOoa/N1R30gbCO1sfBU3rzyEZUlAd+rUqSWnZGknznX4Dj7467Svl/H/4nyX//rkW5JFwCJQygikVECbYzEERCQbp8leJuLZLqANE0akF6TOCnhXJgydoRvpm3Jl4mLYTloEKgACaRPQBnbmLgEtStUx8spUNFsFtLt3HTD7M3vx+6pEwIRB3gjOGl5XpkC3nbUIVGAEMiGgg/CyAyTwV2E0OGl4JwYzykgkmwQ0n4lvwZ5l/XvvWnzYp+ihbQTniSzkDuHw87BvnZURyG03LQIVGoGMCmgTaXYJdEV46LCdQXh9cijrXWkLaMfG35dDigYgfC8GsKoe0PSViw/JG8qXO/7j8zFTD7tNWgQsAtmMQKkJaAOUKmjWpzL9vgHBchH0akZeVkVLS0C7Jgww0h9J/HbJBEwY4DeSPctrswo02xmLgEUgaQSyQUAHO49W3Vx7qyFou173YEaWRDIpoA0sChj+kT4QbEIgT0Boj+EsjE988i3JImARKOMIZJWANrGMY++uyZ6ReLoFNB/arM4HJc90TBh+s4l9DPQDCeVdu3ZNjPR14YyAYRuxCFgE0o5A1gpod+RxHODjsqY9TJeANv7oowW/Jj4DKYSmL1SPwISx1CffkiwCFoFyiEDWC2gTc2zVnUjLDjsI38bMy0Q8lQK6TZs2DbULA6Eb6a/ym9GUJ5E/GhPG+4xP5y5bZxGwCFQgBMqUgDaui/ZW69AmLSxeCL26kZe2aAoEdKwF0aAJY8eOHS+vWrVqe9oGYyu2CFgEsh4B7zatrO+w08F9aJVTiU81NNGbSfstppX6mDBhHIpw197vAnxTXirePi2A8AI8I/nb9RJvpk1bBCwCFROBsqpB+14tdzsamZH+UedbLl5iIhq0cdqfBLPfn3K2MAP4jzVhxIu+5bMIVDwEypWAdi+fcSZFSr8GE4eAdk0Ykc7LlgljFoJ5dHFx8bi1a9duc/tsQ4uARcAi4EWgXApoc5CYF9yD6SN9W89kjxqPJKCNf0Xqn5HNfCpZDm08x3kO5TjPH3zyLckiYBGwCIQhUO4FtDFid2FR2u2l0GsbeXFFTQHNImWsc0V2oClPpq2hdhdGXPBaJouARcCDQEUS0MGhx2EfDvKaEQTuOQjc3YTRhPxc8ofWrFlzPGdhFJvlbdwiYBGwCCSCQIUU0CZACOsjEajX4nUUaiMzzyeubW9+mvcS6KMwYYy2Jgwf1CzJImARSAqBCi+gXdTiOCnOZXXDnQj1NzB7jOHffVMg6iQ56ywCFgGLQMoQsALaB0rnrGV9Y/E6fAcPS8CEgbb8QlFR0VZPnk1aBCwCFoGUIWAFdHQoK7G3+mjszn1h24ifwoLfsuhFbK5FwCJgEbAIWAQsAhYBi0C5RuD/A13S60M8un6fAAAAAElFTkSuQmCC;" vertex="1" parent="1">
                    <mxGeometry x="10" y="6.5" width="141" height="47" as="geometry"/>
                </mxCell>
            </root>
        </mxGraphModel>
    </diagram>
</mxfile>